<svg xmlns="http://www.w3.org/2000/svg" xmlns:xlink="http://www.w3.org/1999/xlink" width="500" zoomAndPan="magnify" viewBox="0 0 375 374.999991" height="500" preserveAspectRatio="xMidYMid meet" version="1.0"><defs><clipPath id="bd6fc831b4"><path d="M 142.796875 146.785156 L 164.546875 146.785156 L 164.546875 162.535156 L 142.796875 162.535156 Z M 142.796875 146.785156 " clip-rule="nonzero"/></clipPath><clipPath id="137bec3631"><path d="M 149 158.109375 L 171 158.109375 L 171 168 L 149 168 Z M 149 158.109375 " clip-rule="nonzero"/></clipPath><clipPath id="03720004e0"><path d="M 147.800781 163 L 174 163 L 174 179.109375 L 147.800781 179.109375 Z M 147.800781 163 " clip-rule="nonzero"/></clipPath><clipPath id="dbaa180049"><path d="M 147.800781 168 L 174 168 L 174 179.109375 L 147.800781 179.109375 Z M 147.800781 168 " clip-rule="nonzero"/></clipPath><clipPath id="558867de52"><path d="M 149 158.109375 L 171 158.109375 L 171 168 L 149 168 Z M 149 158.109375 " clip-rule="nonzero"/></clipPath></defs><rect x="-37.5" width="450" fill="#ffffff" y="-37.499999" height="449.999989" fill-opacity="1"/><rect x="-37.5" width="450" fill="#ffffff" y="-37.499999" height="449.999989" fill-opacity="1"/><g clip-path="url(#bd6fc831b4)"><path fill="#ffb700" d="M 164.546875 160.109375 C 164.546875 161.445312 163.464844 162.53125 162.132812 162.53125 L 145.214844 162.53125 C 143.878906 162.53125 142.796875 161.445312 142.796875 160.109375 L 142.796875 149.210938 C 142.796875 147.875 143.878906 146.789062 145.214844 146.789062 L 162.132812 146.789062 C 163.464844 146.789062 164.546875 147.875 164.546875 149.210938 Z M 164.546875 160.109375 " fill-opacity="1" fill-rule="nonzero"/></g><path fill="#8d2129" d="M 162.132812 147.394531 L 148.839844 147.394531 L 148.839844 161.925781 L 162.132812 161.925781 C 163.132812 161.925781 163.945312 161.109375 163.945312 160.109375 L 163.945312 149.210938 C 163.945312 148.210938 163.132812 147.394531 162.132812 147.394531 Z M 162.132812 147.394531 " fill-opacity="1" fill-rule="nonzero"/><path fill="#005641" d="M 145.214844 147.394531 C 144.214844 147.394531 143.402344 148.210938 143.402344 149.210938 L 143.402344 160.109375 C 143.402344 161.109375 144.214844 161.925781 145.214844 161.925781 L 145.820312 161.925781 L 145.820312 147.394531 Z M 145.214844 147.394531 " fill-opacity="1" fill-rule="nonzero"/><path fill="#ff5b00" d="M 145.820312 147.394531 L 148.234375 147.394531 L 148.234375 161.925781 L 145.820312 161.925781 Z M 145.820312 147.394531 " fill-opacity="1" fill-rule="nonzero"/><path fill="#ffb700" d="M 150.773438 149.851562 C 150.773438 149.851562 150.730469 149.273438 150.75 148.785156 C 150.765625 148.464844 150.585938 148.074219 150.242188 148.132812 C 149.902344 148.1875 149.527344 148.117188 149.527344 148.117188 C 149.527344 148.117188 149.601562 148.339844 149.527344 148.546875 C 149.449219 148.753906 149.449219 149.191406 149.960938 149.246094 C 150.46875 149.304688 150.679688 149.570312 150.773438 149.851562 Z M 162.0625 149.851562 C 162.0625 149.851562 162.101562 149.273438 162.082031 148.785156 C 162.070312 148.464844 162.25 148.074219 162.589844 148.132812 C 162.929688 148.1875 163.308594 148.117188 163.308594 148.117188 C 163.308594 148.117188 163.230469 148.339844 163.308594 148.546875 C 163.382812 148.753906 163.382812 149.191406 162.871094 149.246094 C 162.363281 149.304688 162.15625 149.570312 162.0625 149.851562 Z M 150.773438 159.464844 C 150.773438 159.464844 150.730469 160.046875 150.75 160.53125 C 150.765625 160.855469 150.585938 161.246094 150.242188 161.1875 C 149.90625 161.128906 149.527344 161.199219 149.527344 161.199219 C 149.527344 161.199219 149.601562 160.980469 149.527344 160.769531 C 149.449219 160.5625 149.449219 160.128906 149.960938 160.070312 C 150.46875 160.015625 150.679688 159.75 150.773438 159.464844 Z M 162.0625 159.464844 C 162.0625 159.464844 162.101562 160.046875 162.082031 160.53125 C 162.070312 160.855469 162.25 161.246094 162.589844 161.1875 C 162.929688 161.128906 163.308594 161.199219 163.308594 161.199219 C 163.308594 161.199219 163.230469 160.980469 163.308594 160.769531 C 163.382812 160.5625 163.382812 160.128906 162.871094 160.070312 C 162.363281 160.015625 162.15625 159.75 162.0625 159.464844 Z M 153.917969 151.859375 C 153.917969 151.859375 154.277344 151.839844 154.636719 151.746094 C 154.996094 151.652344 154.882812 151.3125 154.882812 151.3125 C 154.882812 151.3125 155.203125 151.140625 155.390625 151.3125 C 155.582031 151.480469 155.808594 151.460938 155.695312 151.234375 C 156.035156 151.066406 156.183594 151.445312 156.183594 151.445312 C 156.183594 151.445312 156.355469 151.335938 156.390625 151.191406 C 156.695312 151.160156 156.75 151.460938 156.941406 151.425781 C 157.128906 151.386719 157.261719 151.1875 157.261719 151.1875 C 157.261719 151.1875 157.296875 151.726562 156.976562 151.859375 C 157.242188 152.199219 157.164062 152.863281 157.164062 153.03125 L 156.976562 152.917969 C 156.976562 152.917969 157.089844 153.449219 157.148438 153.523438 C 157.203125 153.601562 156.957031 153.523438 156.957031 153.523438 C 156.957031 153.523438 157.089844 153.882812 157.183594 153.941406 C 157.277344 153.996094 159.054688 153.828125 159.5625 153.828125 C 160.074219 153.828125 160.773438 153.75 160.773438 153.296875 C 160.773438 152.84375 160.1875 152.878906 159.527344 152.976562 C 158.867188 153.070312 158.433594 153.050781 158.167969 152.882812 C 157.902344 152.710938 157.601562 152.667969 157.625 153.09375 C 157.222656 152.90625 157.511719 152.503906 157.511719 152.503906 C 157.511719 152.503906 157.050781 152 157.34375 151.492188 C 157.636719 150.988281 158.769531 150.835938 159.5625 151.28125 C 160.355469 151.722656 160.671875 152.085938 161 152.148438 C 160.984375 151.910156 161.390625 151.734375 161.4375 152.175781 C 161.488281 152.617188 160.933594 152.527344 160.695312 152.390625 C 160.457031 152.25 160.03125 151.835938 160.03125 151.835938 C 160.03125 151.835938 160.015625 152.085938 160.179688 152.25 C 159.726562 152.199219 159.628906 151.859375 159.628906 151.859375 C 159.628906 151.859375 159.601562 152.226562 159.1875 152.238281 C 159.488281 151.886719 159.386719 151.59375 158.972656 151.445312 C 159.210938 151.808594 158.984375 152.125 158.632812 152.175781 C 158.871094 151.835938 158.671875 151.445312 158.230469 151.367188 C 158.292969 151.644531 158.078125 151.71875 158.078125 151.71875 C 158.078125 151.71875 157.980469 151.46875 157.777344 151.605469 C 157.574219 151.746094 157.523438 152.050781 157.789062 152.238281 C 157.953125 151.910156 158.28125 151.933594 158.394531 152.074219 C 158.054688 152.109375 158.066406 152.425781 158.191406 152.589844 C 158.316406 152.375 158.445312 152.3125 158.570312 152.539062 C 158.695312 152.765625 159.074219 152.753906 159.753906 152.65625 C 160.433594 152.554688 161.058594 152.628906 161.160156 153.234375 C 161.25 153.75 160.734375 154.003906 160.734375 154.003906 C 160.734375 154.003906 161.402344 154.507812 160.972656 155.605469 C 160.546875 156.703125 160.722656 157.15625 160.886719 157.269531 C 161.046875 157.382812 161.300781 157.398438 160.960938 157.699219 C 160.621094 158.003906 160.707031 158.21875 160.847656 158.394531 C 160.984375 158.570312 160.949219 158.746094 160.546875 158.519531 C 160.367188 158.695312 160.191406 158.644531 160.09375 158.492188 C 159.992188 158.632812 159.800781 158.671875 159.675781 158.519531 C 159.550781 158.621094 159.386719 158.621094 159.476562 158.40625 C 159.5625 158.191406 159.992188 158.101562 160.117188 158.066406 C 160.242188 158.027344 160.230469 157.800781 160.191406 157.546875 C 160.152344 157.296875 159.941406 157.03125 159.488281 156.792969 C 159.285156 156.941406 159.3125 157.117188 159.386719 157.207031 C 159.460938 157.296875 159.699219 157.320312 159.714844 157.398438 C 159.726562 157.472656 159.589844 157.636719 159.4375 157.75 C 159.285156 157.863281 159.3125 158.066406 159.363281 158.167969 C 159.410156 158.269531 159.472656 158.515625 159.3125 158.632812 C 159.148438 158.746094 158.984375 158.480469 158.984375 158.480469 C 158.984375 158.480469 158.882812 158.796875 158.59375 158.496094 C 158.429688 158.695312 158.265625 158.621094 158.191406 158.507812 C 158.027344 158.671875 157.777344 158.660156 157.902344 158.433594 C 158.027344 158.203125 158.179688 158.203125 158.355469 158.191406 C 158.53125 158.179688 158.769531 158.144531 158.746094 157.789062 C 158.71875 157.433594 158.652344 157.078125 158.40625 156.855469 C 158.027344 156.515625 158.089844 156.113281 158.089844 156.113281 C 158.089844 156.113281 157.460938 156.046875 156.972656 156.390625 C 156.480469 156.730469 156.101562 156.730469 156.101562 156.730469 C 156.101562 156.730469 155.824219 157.03125 155.800781 157.222656 C 155.773438 157.410156 155.886719 157.472656 156.039062 157.523438 C 156.191406 157.574219 156.304688 157.5625 156.078125 157.761719 C 155.847656 157.964844 155.660156 157.953125 155.660156 157.953125 C 155.660156 157.953125 155.648438 158.167969 155.675781 158.292969 C 155.699219 158.417969 155.625 158.636719 155.496094 158.660156 C 155.371094 158.683594 155.183594 158.519531 155.183594 158.519531 C 155.183594 158.519531 154.945312 158.773438 154.753906 158.507812 C 154.542969 158.707031 154.351562 158.632812 154.277344 158.507812 C 154.152344 158.707031 153.949219 158.621094 154.074219 158.394531 C 154.203125 158.164062 154.378906 158.140625 154.679688 158.152344 C 154.980469 158.167969 155.234375 157.925781 155.121094 157.609375 C 155.007812 157.296875 154.90625 156.867188 154.90625 156.867188 C 154.90625 156.867188 154.667969 156.839844 154.316406 156.640625 C 153.875 157.167969 153.722656 156.980469 153.597656 156.878906 C 153.472656 156.777344 153.167969 156.5 153.167969 156.5 C 153.167969 156.5 153.003906 156.488281 153.03125 156.640625 C 152.855469 156.625 152.917969 156.347656 152.917969 156.210938 C 152.917969 156.070312 152.867188 155.90625 152.765625 155.90625 C 152.664062 155.90625 152.515625 155.933594 152.515625 155.933594 C 152.515625 155.933594 152.515625 155.984375 152.664062 156.035156 C 152.816406 156.085938 152.804688 156.1875 152.652344 156.199219 C 152.5 156.210938 152.402344 156.246094 152.515625 156.335938 C 152.628906 156.425781 152.640625 156.476562 152.550781 156.5625 C 152.464844 156.652344 152.476562 156.890625 152.628906 156.980469 C 152.726562 156.742188 152.917969 156.878906 152.878906 157.042969 C 152.84375 157.207031 152.566406 157.183594 152.566406 157.183594 L 152.753906 157.394531 L 152.464844 157.460938 C 152.464844 157.460938 152.449219 157.636719 152.339844 157.671875 C 152.226562 157.710938 152.199219 157.410156 152.199219 157.410156 L 151.933594 157.394531 L 152.113281 157.179688 C 152.113281 157.179688 151.859375 157.09375 151.847656 156.941406 C 151.835938 156.789062 152.035156 156.867188 152.074219 156.941406 C 152.273438 156.851562 152.210938 156.652344 152.136719 156.574219 C 152.0625 156.5 152.109375 156.4375 152.1875 156.347656 C 152.261719 156.261719 152.25 156.210938 152.136719 156.234375 C 152.023438 156.257812 151.835938 156.03125 152.023438 156.03125 C 152.210938 156.03125 152.25 156.019531 152.222656 155.882812 C 151.996094 155.855469 152.136719 155.679688 152.136719 155.679688 C 152.136719 155.679688 151.960938 155.554688 152.085938 155.464844 C 151.972656 155.363281 151.945312 155.199219 152.074219 155.175781 C 151.996094 155.113281 152.097656 155 152.097656 155 C 152.097656 155 151.734375 154.9375 151.734375 154.660156 C 151.734375 154.382812 152.050781 154.433594 152.050781 154.433594 C 152.050781 154.433594 152.011719 153.550781 152.101562 152.3125 C 152.1875 151.078125 152.703125 150.648438 153.019531 150.523438 C 152.691406 151.214844 152.730469 152.390625 152.730469 153.109375 C 152.730469 153.828125 152.71875 154.394531 152.71875 154.394531 C 152.71875 154.394531 153.070312 154.417969 153.042969 154.660156 C 153.019531 154.898438 152.855469 154.949219 152.855469 154.949219 L 153.671875 155.769531 C 153.671875 155.769531 153.636719 154.929688 153.914062 154.59375 C 154.1875 154.257812 154.617188 153.941406 154.742188 153.839844 C 154.871094 153.738281 154.664062 153.472656 154.566406 153.765625 C 154.425781 153.746094 154.304688 153.511719 154.304688 153.511719 C 154.304688 153.511719 154.316406 153.601562 154.226562 153.664062 C 154.140625 153.726562 154.164062 153.449219 154.113281 153.472656 C 154.0625 153.5 153.925781 153.574219 153.75 153.625 C 153.761719 153.523438 153.835938 153.398438 153.835938 153.398438 C 153.835938 153.398438 153.609375 153.421875 153.410156 153.449219 C 153.410156 153.273438 153.523438 152.980469 153.621094 152.957031 C 153.371094 152.832031 153.433594 152.589844 153.546875 152.628906 C 153.660156 152.667969 154.1875 152.980469 154.78125 153.019531 C 154.59375 152.804688 154.441406 152.527344 154.441406 152.527344 L 154.378906 152.742188 L 154.152344 152.527344 L 154.125 152.742188 C 154.125 152.742188 153.574219 152.339844 153.472656 152.011719 C 153.371094 151.683594 153.484375 151.441406 153.671875 151.46875 C 154.039062 151.519531 153.917969 151.859375 153.917969 151.859375 Z M 153.917969 151.859375 " fill-opacity="1" fill-rule="nonzero"/><g clip-path="url(#137bec3631)"><path fill="#303033" d="M 149.226562 164.804688 C 149.292969 164.863281 149.394531 164.882812 149.484375 164.90625 C 149.910156 165.035156 150.335938 165.164062 150.761719 165.289062 C 151.5 165.445312 152.234375 165.621094 152.976562 165.757812 C 155.394531 166.203125 157.816406 166.640625 160.234375 167.078125 C 160.757812 167.171875 161.28125 167.285156 161.808594 167.328125 C 162.113281 167.351562 162.453125 167.304688 162.734375 167.183594 C 164.28125 166.507812 165.820312 165.804688 167.351562 165.09375 C 168.175781 164.710938 168.976562 164.289062 169.816406 163.867188 C 170.554688 163.371094 170.777344 162.664062 170.78125 161.871094 C 170.78125 161.261719 170.496094 160.910156 169.949219 160.78125 C 169.894531 160.863281 169.855469 160.984375 169.78125 161.015625 C 169.777344 161.015625 169.773438 161.019531 169.769531 161.019531 C 169.773438 161.019531 169.777344 161.015625 169.78125 161.015625 C 169.855469 160.984375 169.894531 160.863281 169.9375 160.773438 C 169.902344 160.757812 169.875 160.75 169.828125 160.746094 C 169.429688 160.882812 169.050781 161 168.679688 161.144531 C 169.050781 161 169.429688 160.882812 169.8125 160.734375 C 168.859375 160.425781 167.902344 160.101562 166.929688 159.855469 C 164.675781 159.292969 162.410156 158.78125 160.15625 158.222656 C 159.722656 158.117188 159.308594 158.109375 158.886719 158.214844 C 157.0625 158.6875 155.234375 159.148438 153.421875 159.65625 C 152.226562 159.988281 151.050781 160.390625 149.867188 160.761719 C 149.695312 160.8125 149.53125 160.875 149.671875 161.105469 C 149.832031 161.121094 149.996094 161.113281 150.15625 161.132812 C 149.996094 161.117188 149.828125 161.125 149.667969 161.125 C 149.679688 161.4375 149.964844 161.238281 150.089844 161.367188 C 150.160156 161.371094 150.207031 161.367188 150.253906 161.378906 C 151.21875 161.628906 152.183594 161.890625 153.152344 162.132812 C 154.8125 162.542969 156.476562 162.9375 158.140625 163.339844 C 159.203125 163.597656 160.273438 163.84375 161.332031 164.121094 C 162.097656 164.316406 162.519531 164.878906 162.511719 165.609375 C 162.515625 164.878906 162.097656 164.316406 161.332031 164.121094 C 160.273438 163.847656 159.203125 163.601562 158.140625 163.34375 C 156.476562 162.941406 154.8125 162.542969 153.152344 162.132812 C 152.183594 161.890625 151.21875 161.628906 150.253906 161.378906 C 150.207031 161.367188 150.160156 161.371094 150.089844 161.390625 C 150.175781 161.90625 150.339844 162.394531 150.378906 162.890625 C 150.417969 163.398438 150.332031 163.914062 149.832031 164.230469 C 149.730469 164.292969 149.648438 164.382812 149.574219 164.476562 C 149.714844 164.515625 149.847656 164.550781 149.976562 164.578125 C 149.84375 164.550781 149.707031 164.515625 149.550781 164.476562 C 149.445312 164.457031 149.375 164.433594 149.316406 164.449219 C 149.226562 164.472656 149.144531 164.519531 149.0625 164.558594 C 149.117188 164.640625 149.15625 164.742188 149.226562 164.804688 Z M 165.53125 162.59375 C 165.425781 162.632812 165.304688 162.621094 165.1875 162.632812 C 165.304688 162.621094 165.425781 162.632812 165.53125 162.59375 C 165.546875 162.585938 165.5625 162.582031 165.578125 162.574219 C 165.5625 162.582031 165.546875 162.585938 165.53125 162.59375 Z M 153.871094 163.363281 C 154.261719 163.46875 154.65625 163.558594 155.042969 163.664062 C 155.726562 163.855469 156.402344 164.0625 157.082031 164.253906 C 157.5 164.371094 157.925781 164.464844 158.367188 164.582031 C 158.707031 164.695312 159.035156 164.777344 159.351562 164.894531 C 159.625 164.992188 159.917969 164.957031 160.1875 165.148438 C 160.433594 165.324219 160.785156 165.355469 161.09375 165.433594 C 161.101562 165.433594 161.109375 165.4375 161.121094 165.4375 C 161.109375 165.4375 161.101562 165.433594 161.089844 165.433594 C 160.78125 165.355469 160.429688 165.324219 160.1875 165.148438 C 159.917969 164.957031 159.625 164.992188 159.351562 164.894531 C 159.035156 164.78125 158.707031 164.695312 158.382812 164.597656 C 157.925781 164.464844 157.5 164.371094 157.082031 164.253906 C 156.398438 164.0625 155.722656 163.855469 155.042969 163.664062 C 154.65625 163.558594 154.261719 163.46875 153.871094 163.363281 C 153.796875 163.34375 153.738281 163.28125 153.671875 163.238281 C 153.742188 163.226562 153.8125 163.195312 153.875 163.207031 C 153.8125 163.199219 153.742188 163.226562 153.675781 163.238281 C 153.738281 163.28125 153.800781 163.34375 153.871094 163.363281 Z M 154.148438 163.253906 C 154.347656 163.289062 154.550781 163.328125 154.75 163.375 C 154.550781 163.328125 154.347656 163.289062 154.148438 163.253906 Z M 157.5625 164.683594 C 157.492188 164.644531 157.421875 164.601562 157.347656 164.566406 C 157.296875 164.546875 157.242188 164.539062 157.1875 164.527344 C 156.890625 164.460938 156.589844 164.394531 156.289062 164.339844 C 156.261719 164.332031 156.222656 164.375 156.191406 164.394531 C 156.222656 164.375 156.261719 164.332031 156.289062 164.339844 C 156.589844 164.394531 156.890625 164.460938 157.1875 164.527344 C 157.242188 164.535156 157.296875 164.546875 157.347656 164.566406 C 157.421875 164.601562 157.492188 164.644531 157.5625 164.683594 Z M 157.515625 164.6875 C 157.453125 164.6875 157.390625 164.691406 157.332031 164.695312 C 157.054688 164.617188 156.785156 164.558594 156.519531 164.503906 C 156.785156 164.558594 157.050781 164.613281 157.324219 164.675781 C 157.390625 164.6875 157.453125 164.6875 157.515625 164.6875 Z M 155.867188 164.226562 C 155.820312 164.210938 155.773438 164.191406 155.726562 164.175781 C 155.589844 164.136719 155.457031 164.085938 155.316406 164.066406 C 155.203125 164.050781 155.085938 164.078125 154.972656 164.085938 C 155.085938 164.078125 155.203125 164.050781 155.316406 164.066406 C 155.457031 164.085938 155.589844 164.136719 155.726562 164.175781 C 155.777344 164.191406 155.820312 164.210938 155.867188 164.226562 Z M 155.542969 164.28125 C 155.449219 164.261719 155.355469 164.238281 155.257812 164.21875 C 155.253906 164.214844 155.246094 164.214844 155.238281 164.210938 C 155.347656 164.238281 155.445312 164.261719 155.542969 164.28125 Z M 162.265625 166.613281 C 162.367188 166.5625 162.417969 166.402344 162.488281 166.289062 C 162.484375 166.183594 162.46875 166.078125 162.476562 165.976562 C 162.46875 166.078125 162.488281 166.183594 162.507812 166.285156 C 162.550781 166.253906 162.578125 166.230469 162.59375 166.199219 C 162.960938 165.433594 162.542969 164.457031 161.800781 164.0625 C 162.546875 164.453125 162.964844 165.433594 162.59375 166.199219 C 162.578125 166.230469 162.550781 166.253906 162.507812 166.285156 C 162.417969 166.402344 162.371094 166.5625 162.269531 166.613281 C 162.152344 166.671875 162.023438 166.738281 161.898438 166.78125 C 162.023438 166.738281 162.152344 166.671875 162.265625 166.613281 Z M 160.914062 164.5625 C 160.890625 164.550781 160.863281 164.542969 160.839844 164.53125 C 160.863281 164.542969 160.890625 164.550781 160.914062 164.5625 Z M 160.769531 164.507812 C 160.742188 164.496094 160.710938 164.484375 160.683594 164.476562 C 160.710938 164.484375 160.742188 164.496094 160.769531 164.507812 Z M 160.308594 164.347656 C 160.050781 164.28125 159.808594 164.21875 159.570312 164.152344 C 159.8125 164.21875 160.054688 164.28125 160.296875 164.34375 C 160.300781 164.34375 160.304688 164.347656 160.308594 164.347656 Z M 153.050781 162.558594 C 153.074219 162.59375 153.09375 162.636719 153.125 162.65625 C 153.171875 162.683594 153.230469 162.691406 153.28125 162.710938 C 153.75 162.890625 154.261719 162.882812 154.722656 163.078125 C 154.898438 163.15625 155.097656 163.164062 155.28125 163.21875 C 155.90625 163.398438 156.523438 163.59375 157.144531 163.777344 C 158.246094 164.097656 159.34375 164.410156 160.441406 164.726562 C 160.589844 164.769531 160.730469 164.847656 160.882812 164.871094 C 160.945312 164.882812 161.027344 164.796875 161.097656 164.753906 C 161.027344 164.796875 160.945312 164.882812 160.882812 164.871094 C 160.730469 164.847656 160.589844 164.773438 160.441406 164.726562 C 159.34375 164.410156 158.242188 164.097656 157.144531 163.777344 C 156.523438 163.59375 155.902344 163.402344 155.28125 163.21875 C 155.097656 163.164062 154.898438 163.15625 154.722656 163.082031 C 154.261719 162.882812 153.746094 162.890625 153.28125 162.714844 C 153.230469 162.695312 153.171875 162.683594 153.125 162.65625 C 153.09375 162.636719 153.074219 162.59375 153.050781 162.5625 C 153.050781 162.5625 153.050781 162.5625 153.050781 162.558594 Z M 153.101562 163.695312 C 153.042969 163.703125 152.984375 163.722656 152.929688 163.714844 C 152.476562 163.640625 152.019531 163.566406 151.566406 163.484375 C 151.507812 163.472656 151.460938 163.402344 151.410156 163.363281 C 151.410156 163.347656 151.410156 163.339844 151.410156 163.332031 C 151.933594 163.402344 152.445312 163.476562 152.960938 163.558594 C 153.011719 163.566406 153.054688 163.648438 153.101562 163.695312 Z M 152.941406 163.015625 C 152.914062 163.023438 152.882812 163.042969 152.859375 163.039062 C 152.535156 162.976562 152.210938 162.917969 151.890625 162.855469 C 151.867188 162.851562 151.851562 162.828125 151.832031 162.8125 C 151.855469 162.800781 151.882812 162.769531 151.910156 162.773438 C 152.003906 162.78125 152.101562 162.800781 152.199219 162.816406 C 152.457031 162.871094 152.671875 162.914062 152.882812 162.960938 C 152.90625 162.96875 152.921875 162.996094 152.941406 163.015625 Z M 151.636719 162.164062 C 151.921875 162.222656 152.199219 162.300781 152.480469 162.378906 C 152.515625 162.386719 152.550781 162.410156 152.585938 162.425781 C 152.542969 162.457031 152.507812 162.5 152.460938 162.515625 C 152.421875 162.523438 152.378906 162.496094 152.335938 162.484375 C 152.035156 162.394531 151.730469 162.304688 151.429688 162.21875 C 151.476562 162.191406 151.5625 162.148438 151.636719 162.164062 Z M 150.113281 164.605469 C 150.089844 164.601562 150.070312 164.597656 150.046875 164.59375 C 150.070312 164.597656 150.089844 164.601562 150.113281 164.605469 Z M 150.113281 164.605469 " fill-opacity="1" fill-rule="nonzero"/></g><path fill="#303033" d="M 149.578125 169.082031 C 149.628906 169.109375 149.664062 169.125 149.699219 169.136719 C 152.117188 169.695312 154.535156 170.253906 156.953125 170.8125 C 158.460938 171.164062 159.96875 171.511719 161.476562 171.863281 C 161.824219 171.945312 162.195312 171.710938 162.300781 171.359375 C 162.453125 170.835938 162.359375 170.332031 162.214844 169.824219 C 162.003906 169.039062 161.355469 168.925781 160.683594 168.808594 C 159.101562 168.523438 157.527344 168.21875 155.953125 167.902344 C 154.390625 167.585938 152.832031 167.246094 151.273438 166.90625 C 150.675781 166.773438 150.082031 166.609375 149.46875 166.484375 C 149.507812 166.621094 149.5625 166.738281 149.617188 166.855469 C 149.71875 166.886719 149.816406 166.917969 149.914062 166.945312 C 149.816406 166.917969 149.714844 166.886719 149.601562 166.867188 C 149.539062 167.015625 149.570312 167.109375 149.753906 167.128906 C 150.21875 167.203125 150.664062 167.277344 151.105469 167.359375 C 151.984375 167.523438 152.863281 167.6875 153.738281 167.859375 C 154.292969 167.96875 154.847656 168.105469 155.402344 168.222656 C 155.832031 168.3125 156.265625 168.398438 156.695312 168.480469 C 156.703125 168.484375 156.710938 168.484375 156.722656 168.484375 C 156.710938 168.484375 156.703125 168.484375 156.695312 168.480469 C 156.261719 168.398438 155.832031 168.3125 155.398438 168.222656 C 154.84375 168.105469 154.292969 167.96875 153.738281 167.859375 C 152.863281 167.6875 151.984375 167.523438 151.105469 167.359375 C 150.660156 167.277344 150.21875 167.203125 149.75 167.152344 C 149.738281 167.234375 149.746094 167.289062 149.753906 167.339844 C 149.800781 167.792969 149.949219 168.242188 149.734375 168.710938 C 149.679688 168.84375 149.621094 168.957031 149.578125 169.082031 Z M 160.433594 169.347656 C 160.402344 169.324219 160.375 169.289062 160.339844 169.277344 C 160.304688 169.265625 160.273438 169.253906 160.238281 169.246094 C 160.273438 169.253906 160.304688 169.265625 160.339844 169.277344 C 160.375 169.289062 160.402344 169.324219 160.433594 169.347656 Z M 157.292969 168.480469 C 158 168.667969 158.707031 168.863281 159.410156 169.050781 C 159.476562 169.070312 159.554688 169.046875 159.625 169.042969 C 159.785156 169.097656 159.933594 169.148438 160.074219 169.191406 C 159.933594 169.148438 159.789062 169.101562 159.640625 169.054688 C 159.550781 169.046875 159.476562 169.070312 159.410156 169.050781 C 158.707031 168.863281 158 168.667969 157.292969 168.480469 C 157.226562 168.460938 157.140625 168.507812 157.0625 168.523438 C 157.140625 168.507812 157.226562 168.460938 157.292969 168.480469 Z M 156.730469 168.800781 C 156.675781 168.792969 156.625 168.78125 156.570312 168.765625 C 156.625 168.78125 156.675781 168.792969 156.730469 168.800781 C 156.796875 168.8125 156.871094 168.792969 156.9375 168.785156 C 156.9375 168.785156 156.9375 168.789062 156.9375 168.789062 C 156.871094 168.792969 156.796875 168.8125 156.730469 168.800781 Z M 154.539062 167.941406 C 154.574219 167.9375 154.613281 167.9375 154.648438 167.9375 C 154.613281 167.9375 154.574219 167.9375 154.539062 167.941406 Z M 155.121094 168.351562 C 155.15625 168.390625 155.183594 168.457031 155.226562 168.464844 C 155.460938 168.523438 155.695312 168.574219 155.941406 168.625 C 155.691406 168.574219 155.457031 168.523438 155.226562 168.46875 C 155.183594 168.457031 155.15625 168.390625 155.121094 168.351562 Z M 155.121094 168.351562 " fill-opacity="1" fill-rule="nonzero"/><g clip-path="url(#03720004e0)"><path fill="#303033" d="M 173.921875 170.9375 C 173.378906 171.042969 172.859375 171.140625 172.347656 171.265625 C 168.386719 172.226562 164.429688 173.191406 160.472656 174.15625 C 160.046875 174.261719 159.625 174.375 159.199219 174.46875 C 159.058594 174.496094 158.90625 174.46875 158.789062 174.558594 C 158.90625 174.464844 159.058594 174.496094 159.199219 174.46875 C 159.625 174.375 160.046875 174.261719 160.472656 174.15625 C 164.429688 173.191406 168.386719 172.226562 172.347656 171.265625 C 172.859375 171.140625 173.378906 171.042969 173.921875 170.914062 C 173.847656 170.808594 173.761719 170.691406 173.644531 170.632812 C 173.472656 170.542969 173.28125 170.492188 173.097656 170.425781 C 171.585938 169.886719 170.070312 169.351562 168.554688 168.8125 C 168.039062 169.105469 167.519531 169.394531 167 169.683594 C 167.519531 169.390625 168.046875 169.097656 168.574219 168.800781 C 169.253906 168.464844 169.917969 168.144531 170.582031 167.824219 C 171.097656 167.570312 171.429688 167.148438 171.511719 166.601562 C 171.578125 166.140625 171.570312 165.652344 171.496094 165.191406 C 171.421875 164.738281 171.1875 164.3125 170.742188 164.105469 C 170.460938 163.972656 170.132812 163.949219 169.804688 163.882812 C 168.976562 164.292969 168.175781 164.710938 167.351562 165.09375 C 165.820312 165.808594 164.28125 166.507812 162.734375 167.183594 C 162.453125 167.304688 162.113281 167.351562 161.808594 167.328125 C 161.28125 167.289062 160.757812 167.171875 160.234375 167.078125 C 157.816406 166.640625 155.394531 166.203125 152.976562 165.757812 C 152.234375 165.621094 151.5 165.445312 150.742188 165.304688 C 150.246094 165.414062 149.761719 165.496094 149.285156 165.621094 C 149.15625 165.652344 149.058594 165.808594 148.941406 165.90625 C 148.960938 165.902344 148.976562 165.898438 148.996094 165.894531 C 148.976562 165.898438 148.957031 165.910156 148.9375 165.925781 C 148.910156 166.308594 149.246094 166.320312 149.46875 166.464844 C 150.082031 166.609375 150.675781 166.773438 151.273438 166.902344 C 152.832031 167.246094 154.390625 167.582031 155.953125 167.898438 C 157.527344 168.21875 159.105469 168.523438 160.683594 168.804688 C 161.355469 168.925781 162.003906 169.039062 162.238281 169.820312 C 162.253906 169.765625 162.261719 169.714844 162.261719 169.667969 C 162.261719 169.714844 162.253906 169.769531 162.238281 169.820312 C 162.359375 170.332031 162.453125 170.835938 162.300781 171.359375 C 162.195312 171.710938 161.824219 171.945312 161.476562 171.863281 C 159.96875 171.515625 158.460938 171.164062 156.953125 170.816406 C 154.535156 170.253906 152.117188 169.695312 149.699219 169.136719 C 149.664062 169.128906 149.632812 169.109375 149.554688 169.085938 C 149.484375 169.070312 149.449219 169.058594 149.429688 169.070312 C 149.3125 169.132812 149.121094 169.1875 149.097656 169.277344 C 149.09375 169.300781 149.09375 169.320312 149.09375 169.339844 C 149.09375 169.320312 149.09375 169.300781 149.097656 169.277344 C 149.121094 169.183594 149.3125 169.132812 149.429688 169.066406 C 149.449219 169.054688 149.484375 169.066406 149.539062 169.070312 C 149.621094 168.957031 149.679688 168.84375 149.714844 168.714844 C 149.425781 168.789062 149.164062 168.898438 148.898438 168.96875 C 148.351562 169.113281 148.035156 169.492188 147.960938 170.003906 C 147.867188 170.644531 147.859375 171.296875 147.832031 171.945312 C 147.8125 172.457031 148.101562 172.816406 148.5 173.09375 C 149.617188 173.875 150.722656 174.675781 151.863281 175.417969 C 153.667969 176.59375 155.46875 177.785156 157.433594 178.6875 C 157.894531 178.902344 158.363281 179.109375 158.882812 179.03125 C 159.382812 178.957031 159.878906 178.867188 160.363281 178.734375 C 163.25 177.941406 166.136719 177.144531 169.019531 176.328125 C 170.480469 175.914062 171.929688 175.460938 173.378906 175.011719 C 173.480469 174.980469 173.550781 174.847656 173.632812 174.765625 C 173.527344 174.714844 173.421875 174.667969 173.316406 174.621094 C 171.417969 175.132812 169.519531 175.636719 167.621094 176.148438 C 169.519531 175.636719 171.417969 175.128906 173.308594 174.605469 C 172.78125 174.125 172.695312 173.519531 172.769531 172.878906 C 172.800781 172.597656 172.898438 172.320312 173 172.050781 C 173.09375 171.808594 173.230469 171.578125 173.347656 171.34375 C 173.347656 171.34375 173.351562 171.34375 173.351562 171.34375 C 173.355469 171.34375 173.359375 171.34375 173.359375 171.34375 C 173.375 171.332031 173.386719 171.328125 173.4375 171.324219 C 173.59375 171.285156 173.722656 171.253906 173.84375 171.214844 C 173.988281 171.167969 174.039062 171.078125 173.921875 170.9375 Z M 167.363281 174.546875 C 167.363281 174.550781 167.359375 174.550781 167.359375 174.550781 C 167.359375 174.550781 167.363281 174.550781 167.363281 174.546875 Z M 164.789062 174.847656 C 164.785156 174.84375 164.777344 174.84375 164.773438 174.84375 C 165.5625 174.625 166.324219 174.394531 167.09375 174.1875 C 166.320312 174.394531 165.554688 174.625 164.789062 174.847656 Z M 166.6875 174.671875 C 166.511719 174.714844 166.335938 174.761719 166.152344 174.804688 C 166.148438 174.808594 166.144531 174.808594 166.140625 174.808594 C 166.332031 174.761719 166.511719 174.714844 166.6875 174.671875 Z M 165.816406 174.917969 C 165.882812 174.925781 165.957031 174.945312 166.019531 174.929688 C 166.445312 174.824219 166.871094 174.710938 167.296875 174.597656 C 167.304688 174.597656 167.3125 174.59375 167.320312 174.585938 C 167.3125 174.59375 167.304688 174.597656 167.296875 174.597656 C 166.871094 174.710938 166.445312 174.824219 166.019531 174.933594 C 165.957031 174.949219 165.882812 174.925781 165.816406 174.921875 C 165.816406 174.921875 165.816406 174.917969 165.816406 174.917969 Z M 166.769531 173.664062 C 166.796875 173.667969 166.828125 173.683594 166.851562 173.675781 C 166.953125 173.640625 167.046875 173.589844 167.152344 173.566406 C 167.433594 173.503906 167.726562 173.464844 168.007812 173.398438 C 168.296875 173.324219 168.589844 173.25 168.878906 173.175781 C 168.585938 173.253906 168.296875 173.324219 168.007812 173.398438 C 167.726562 173.464844 167.433594 173.507812 167.152344 173.570312 C 167.046875 173.589844 166.949219 173.644531 166.851562 173.675781 C 166.828125 173.683594 166.796875 173.667969 166.769531 173.664062 Z M 164.710938 174.699219 C 165.125 174.582031 165.539062 174.464844 165.953125 174.351562 C 165.539062 174.464844 165.125 174.582031 164.710938 174.699219 Z M 164.59375 174.800781 C 164.582031 174.796875 164.566406 174.792969 164.554688 174.785156 C 164.566406 174.792969 164.582031 174.796875 164.59375 174.800781 Z M 166.394531 166.195312 C 167.390625 165.65625 168.386719 165.109375 169.394531 164.5625 C 169.5 164.503906 169.601562 164.453125 169.695312 164.394531 C 169.601562 164.449219 169.507812 164.5 169.410156 164.554688 C 168.390625 165.109375 167.390625 165.65625 166.394531 166.195312 Z M 165.585938 166.632812 C 165.832031 166.5 166.078125 166.367188 166.324219 166.234375 C 166.078125 166.367188 165.832031 166.5 165.585938 166.632812 Z M 165.253906 166.589844 C 166.742188 165.773438 168.234375 164.960938 169.730469 164.152344 C 169.847656 164.089844 169.992188 164.078125 170.125 164.042969 C 169.992188 164.078125 169.847656 164.089844 169.730469 164.152344 C 168.234375 164.960938 166.742188 165.773438 165.253906 166.589844 C 165.144531 166.652344 165.058594 166.753906 164.960938 166.835938 C 165.058594 166.753906 165.144531 166.652344 165.253906 166.589844 Z M 153.839844 172.332031 C 153.378906 172.089844 152.910156 171.855469 152.464844 171.582031 C 151.617188 171.058594 150.785156 170.515625 149.949219 169.972656 C 149.859375 169.917969 149.671875 169.859375 149.867188 169.691406 C 149.804688 169.667969 149.734375 169.640625 149.664062 169.617188 C 149.738281 169.640625 149.8125 169.667969 149.890625 169.691406 C 149.9375 169.710938 149.984375 169.734375 150.070312 169.757812 C 150.117188 169.757812 150.15625 169.757812 150.1875 169.761719 C 150.160156 169.761719 150.128906 169.761719 150.089844 169.761719 C 151.136719 170.558594 152.246094 171.292969 153.445312 171.882812 C 153.617188 171.96875 153.78125 172.074219 153.945312 172.183594 C 153.988281 172.214844 154.007812 172.289062 154.035156 172.34375 C 153.96875 172.339844 153.890625 172.363281 153.839844 172.332031 Z M 158.425781 175.152344 C 158.25 175.523438 158.15625 175.917969 158.25 176.359375 C 158.289062 176.316406 158.3125 176.277344 158.328125 176.238281 C 158.460938 175.851562 158.566406 175.449219 158.738281 175.078125 C 158.753906 175.039062 158.777344 175.003906 158.808594 174.964844 C 158.777344 175.003906 158.753906 175.039062 158.738281 175.078125 C 158.566406 175.449219 158.460938 175.851562 158.328125 176.238281 C 158.3125 176.277344 158.289062 176.316406 158.25 176.382812 C 158.238281 176.554688 158.242188 176.695312 158.253906 176.839844 C 158.242188 176.695312 158.238281 176.550781 158.230469 176.386719 C 158.148438 175.925781 158.246094 175.527344 158.425781 175.152344 Z M 169.089844 173.683594 C 169.300781 173.617188 169.507812 173.542969 169.722656 173.484375 C 169.507812 173.542969 169.300781 173.617188 169.089844 173.683594 Z M 171.917969 172.375 C 171.730469 172.425781 171.542969 172.476562 171.355469 172.527344 C 171.542969 172.476562 171.730469 172.425781 171.917969 172.375 C 171.96875 172.363281 172.003906 172.289062 172.046875 172.242188 C 172.003906 172.289062 171.96875 172.363281 171.917969 172.375 Z M 171.917969 172.375 " fill-opacity="1" fill-rule="nonzero"/></g><path fill="#303033" d="M 173.371094 171.351562 C 173.398438 171.351562 173.414062 171.34375 173.417969 171.332031 C 173.386719 171.328125 173.375 171.332031 173.371094 171.351562 Z M 173.371094 171.351562 " fill-opacity="1" fill-rule="nonzero"/><path fill="#8d77ab" d="M 157.699219 174.039062 C 157.777344 174.074219 157.847656 174.128906 157.925781 174.144531 C 158.03125 174.164062 158.136719 174.148438 158.242188 174.148438 C 158.167969 174.082031 158.105469 173.984375 158.015625 173.945312 C 157.40625 173.695312 156.792969 173.453125 156.175781 173.214844 C 156.101562 173.1875 156.007812 173.210938 155.925781 173.207031 C 155.988281 173.265625 156.042969 173.351562 156.117188 173.382812 C 156.628906 173.597656 157.144531 173.804688 157.699219 174.039062 Z M 157.699219 174.039062 " fill-opacity="1" fill-rule="nonzero"/><g clip-path="url(#dbaa180049)"><path fill="#f45830" d="M 166.050781 176.570312 C 163.726562 177.199219 161.40625 177.839844 159.089844 178.484375 C 158.886719 178.542969 158.789062 178.464844 158.699219 178.332031 C 158.394531 177.886719 158.304688 177.375 158.257812 176.851562 C 158.242188 176.707031 158.238281 176.558594 158.230469 176.386719 C 158.113281 175.710938 158.378906 175.167969 158.714844 174.640625 C 158.835938 174.449219 159.027344 174.503906 159.199219 174.46875 C 159.625 174.375 160.046875 174.261719 160.472656 174.15625 C 164.429688 173.191406 168.386719 172.226562 172.347656 171.265625 C 172.859375 171.140625 173.378906 171.042969 173.921875 170.914062 C 173.847656 170.808594 173.761719 170.691406 173.644531 170.632812 C 173.472656 170.542969 173.28125 170.492188 173.097656 170.425781 C 171.585938 169.886719 170.070312 169.351562 168.554688 168.8125 L 149.851562 168.699219 C 149.804688 168.667969 149.742188 168.667969 149.691406 168.699219 C 149.613281 168.742188 149.535156 168.765625 149.445312 168.792969 C 149.261719 168.851562 149.082031 168.921875 148.898438 168.96875 C 148.351562 169.113281 148.035156 169.492188 147.960938 170.003906 C 147.867188 170.644531 147.859375 171.296875 147.832031 171.945312 C 147.8125 172.457031 148.101562 172.816406 148.5 173.09375 C 149.617188 173.875 150.722656 174.675781 151.863281 175.417969 C 153.667969 176.59375 155.46875 177.785156 157.433594 178.6875 C 157.894531 178.902344 158.363281 179.109375 158.882812 179.03125 C 159.382812 178.957031 159.878906 178.867188 160.363281 178.734375 C 163.25 177.941406 166.136719 177.144531 169.019531 176.328125 C 170.480469 175.914062 171.929688 175.460938 173.378906 175.011719 C 173.480469 174.980469 173.550781 174.847656 173.632812 174.765625 C 173.527344 174.714844 173.421875 174.667969 173.316406 174.621094 C 170.894531 175.269531 168.46875 175.914062 166.050781 176.570312 Z M 166.050781 176.570312 " fill-opacity="1" fill-rule="nonzero"/></g><path fill="#fcac3d" d="M 171.496094 165.191406 C 171.421875 164.738281 171.1875 164.3125 170.742188 164.105469 C 170.460938 163.972656 170.132812 163.949219 169.804688 163.882812 L 156.199219 163.203125 L 150.742188 165.304688 C 150.246094 165.414062 149.761719 165.496094 149.285156 165.621094 C 149.15625 165.652344 149.058594 165.808594 148.941406 165.90625 C 148.972656 165.902344 149.007812 165.886719 149.023438 165.898438 C 149.722656 166.398438 150.566406 166.476562 151.359375 166.65625 C 153.898438 167.238281 156.453125 167.761719 159.003906 168.292969 C 159.746094 168.449219 160.5 168.585938 161.253906 168.671875 C 161.863281 168.738281 162.117188 169.097656 162.253906 169.621094 C 162.269531 169.683594 162.257812 169.75 162.238281 169.820312 C 162.359375 170.332031 162.453125 170.835938 162.300781 171.359375 C 162.195312 171.710938 161.824219 171.945312 161.476562 171.863281 C 159.96875 171.515625 158.460938 171.164062 156.953125 170.816406 C 154.535156 170.253906 152.117188 169.695312 149.699219 169.136719 C 149.664062 169.128906 149.632812 169.109375 149.554688 169.085938 C 149.484375 169.070312 149.449219 169.058594 149.429688 169.070312 C 149.3125 169.132812 149.121094 169.1875 149.097656 169.277344 C 149.054688 169.457031 149.226562 169.503906 149.386719 169.539062 C 149.558594 169.574219 149.722656 169.640625 149.890625 169.691406 C 149.9375 169.710938 149.984375 169.734375 150.070312 169.757812 C 150.167969 169.761719 150.226562 169.757812 150.28125 169.773438 C 151.273438 170 152.261719 170.234375 153.253906 170.457031 C 156.089844 171.101562 158.925781 171.726562 161.757812 172.382812 C 162.277344 172.503906 162.695312 172.402344 163.121094 172.101562 C 163.855469 171.585938 164.597656 171.085938 165.367188 170.625 C 166.417969 169.996094 167.492188 169.414062 168.574219 168.800781 C 169.253906 168.464844 169.917969 168.144531 170.582031 167.824219 C 171.097656 167.570312 171.429688 167.148438 171.511719 166.601562 C 171.578125 166.140625 171.570312 165.652344 171.496094 165.191406 Z M 171.496094 165.191406 " fill-opacity="1" fill-rule="nonzero"/><g clip-path="url(#558867de52)"><path fill="#8d77ab" d="M 170.78125 161.871094 C 170.777344 162.664062 170.554688 163.371094 169.816406 163.867188 C 168.976562 164.289062 168.175781 164.710938 167.351562 165.09375 C 165.820312 165.804688 164.28125 166.507812 162.734375 167.183594 C 162.453125 167.304688 162.113281 167.351562 161.808594 167.328125 C 161.28125 167.285156 160.757812 167.171875 160.234375 167.078125 C 157.816406 166.640625 155.394531 166.203125 152.976562 165.757812 C 152.234375 165.621094 151.5 165.445312 150.761719 165.289062 C 150.335938 165.164062 149.910156 165.035156 149.484375 164.90625 C 149.394531 164.882812 149.292969 164.863281 149.226562 164.804688 C 149.15625 164.742188 149.117188 164.640625 149.0625 164.558594 C 149.144531 164.519531 149.226562 164.472656 149.316406 164.449219 C 149.375 164.433594 149.445312 164.457031 149.550781 164.476562 C 149.777344 164.53125 149.964844 164.585938 150.15625 164.613281 C 150.765625 164.699219 151.378906 164.75 151.980469 164.867188 C 154.648438 165.390625 157.3125 165.929688 159.980469 166.46875 C 160.523438 166.578125 161.058594 166.742188 161.609375 166.820312 C 161.816406 166.847656 162.0625 166.71875 162.269531 166.613281 C 162.371094 166.5625 162.417969 166.402344 162.507812 166.285156 C 162.550781 166.253906 162.578125 166.230469 162.59375 166.199219 C 163.015625 165.324219 162.410156 164.171875 161.464844 163.933594 C 160.398438 163.667969 159.328125 163.394531 158.25 163.15625 C 155.597656 162.570312 152.957031 161.929688 150.347656 161.167969 C 150.136719 161.105469 149.898438 161.125 149.671875 161.105469 C 149.53125 160.875 149.695312 160.8125 149.867188 160.761719 C 151.050781 160.390625 152.226562 159.988281 153.421875 159.65625 C 155.234375 159.148438 157.0625 158.6875 158.886719 158.214844 C 159.308594 158.109375 159.722656 158.117188 160.15625 158.222656 C 162.410156 158.78125 164.675781 159.292969 166.929688 159.855469 C 167.902344 160.101562 168.859375 160.425781 169.8125 160.734375 L 169.9375 160.796875 C 169.941406 160.792969 169.945312 160.789062 169.949219 160.78125 C 170.496094 160.910156 170.78125 161.261719 170.78125 161.871094 Z M 170.78125 161.871094 " fill-opacity="1" fill-rule="nonzero"/></g><path fill="#fcac3d" d="M 169.410156 164.554688 C 169.546875 164.476562 169.691406 164.40625 169.820312 164.316406 C 169.929688 164.238281 170.023438 164.136719 170.125 164.042969 C 169.992188 164.078125 169.847656 164.089844 169.730469 164.152344 C 168.234375 164.960938 166.742188 165.773438 165.253906 166.589844 C 165.144531 166.652344 165.058594 166.753906 164.960938 166.835938 C 165.09375 166.8125 165.246094 166.816406 165.359375 166.757812 C 166.699219 166.035156 168.035156 165.300781 169.410156 164.554688 Z M 169.410156 164.554688 " fill-opacity="1" fill-rule="nonzero"/><path fill="#e5e1d7" d="M 173.308594 174.605469 C 170.894531 175.269531 168.46875 175.914062 166.050781 176.570312 C 163.726562 177.199219 161.410156 177.839844 159.089844 178.484375 C 158.886719 178.542969 158.789062 178.464844 158.699219 178.332031 C 158.394531 177.886719 158.304688 177.375 158.257812 176.851562 C 158.242188 176.707031 158.238281 176.558594 158.25 176.382812 C 158.289062 176.316406 158.3125 176.277344 158.328125 176.238281 C 158.460938 175.851562 158.566406 175.449219 158.738281 175.078125 C 158.804688 174.925781 159 174.777344 159.164062 174.738281 C 160.695312 174.355469 162.230469 174.003906 163.761719 173.636719 C 166.957031 172.875 170.152344 172.109375 173.347656 171.34375 C 173.230469 171.578125 173.09375 171.808594 173 172.050781 C 172.898438 172.320312 172.800781 172.597656 172.769531 172.878906 C 172.695312 173.519531 172.78125 174.125 173.308594 174.605469 Z M 164.789062 174.847656 C 165.554688 174.625 166.320312 174.394531 167.09375 174.1875 C 167.652344 174.035156 168.226562 173.921875 168.789062 173.773438 C 169.101562 173.691406 169.40625 173.566406 169.722656 173.484375 C 170.042969 173.402344 170.371094 173.347656 170.695312 173.277344 C 170.742188 173.269531 170.78125 173.230469 170.824219 173.207031 C 170.769531 173.1875 170.714844 173.136719 170.667969 173.144531 C 170.167969 173.253906 169.664062 173.359375 169.164062 173.484375 C 168.507812 173.648438 167.847656 173.828125 167.195312 174.003906 C 166.363281 174.230469 165.539062 174.464844 164.710938 174.699219 C 164.65625 174.714844 164.605469 174.757812 164.554688 174.785156 C 164.617188 174.808594 164.679688 174.824219 164.789062 174.847656 Z M 170.109375 172.851562 C 170.714844 172.695312 171.316406 172.539062 171.917969 172.375 C 171.96875 172.363281 172.003906 172.289062 172.046875 172.242188 C 171.992188 172.226562 171.929688 172.1875 171.878906 172.199219 C 171.542969 172.269531 171.210938 172.335938 170.878906 172.421875 C 169.71875 172.726562 168.558594 173.03125 167.402344 173.34375 C 167.207031 173.398438 167.023438 173.507812 166.832031 173.597656 C 166.808594 173.609375 166.789062 173.640625 166.769531 173.664062 C 166.796875 173.667969 166.828125 173.683594 166.851562 173.675781 C 166.949219 173.644531 167.046875 173.589844 167.152344 173.570312 C 167.433594 173.507812 167.726562 173.464844 168.007812 173.398438 C 168.695312 173.226562 169.378906 173.046875 170.109375 172.851562 Z M 166.132812 174.808594 C 166.089844 174.820312 166.042969 174.820312 166 174.835938 C 165.9375 174.859375 165.878906 174.890625 165.816406 174.921875 C 165.882812 174.925781 165.957031 174.949219 166.019531 174.933594 C 166.445312 174.824219 166.871094 174.710938 167.296875 174.597656 C 167.320312 174.59375 167.339844 174.566406 167.363281 174.546875 C 167.339844 174.539062 167.3125 174.515625 167.289062 174.519531 C 166.917969 174.613281 166.546875 174.707031 166.132812 174.808594 Z M 166.132812 174.808594 " fill-opacity="1" fill-rule="nonzero"/><path fill="#e5e1d7" d="M 162.214844 169.824219 C 162.359375 170.332031 162.453125 170.835938 162.300781 171.359375 C 162.195312 171.710938 161.824219 171.945312 161.476562 171.863281 C 159.96875 171.511719 158.460938 171.164062 156.953125 170.8125 C 154.535156 170.253906 152.117188 169.695312 149.699219 169.136719 C 149.664062 169.125 149.628906 169.109375 149.578125 169.082031 C 149.621094 168.957031 149.679688 168.84375 149.734375 168.710938 C 149.949219 168.242188 149.800781 167.792969 149.753906 167.339844 C 149.746094 167.289062 149.738281 167.234375 149.75 167.152344 C 150.21875 167.203125 150.660156 167.277344 151.105469 167.359375 C 151.984375 167.523438 152.863281 167.6875 153.738281 167.859375 C 154.292969 167.96875 154.84375 168.105469 155.398438 168.222656 C 155.832031 168.3125 156.261719 168.398438 156.695312 168.480469 C 156.730469 168.488281 156.765625 168.476562 156.800781 168.472656 C 156.777344 168.433594 156.753906 168.375 156.71875 168.363281 C 156.554688 168.320312 156.386719 168.269531 156.21875 168.253906 C 155.652344 168.1875 155.128906 167.917969 154.539062 167.941406 C 154.261719 167.949219 153.988281 167.757812 153.703125 167.699219 C 152.46875 167.445312 151.230469 167.210938 149.996094 166.964844 C 149.867188 166.9375 149.746094 166.894531 149.617188 166.855469 C 149.5625 166.738281 149.507812 166.621094 149.46875 166.484375 C 150.082031 166.609375 150.675781 166.773438 151.273438 166.90625 C 152.832031 167.246094 154.390625 167.585938 155.953125 167.902344 C 157.527344 168.21875 159.101562 168.523438 160.683594 168.808594 C 161.355469 168.925781 162.003906 169.039062 162.214844 169.824219 Z M 159.625 169.042969 C 159.554688 169.046875 159.476562 169.070312 159.410156 169.050781 C 158.707031 168.863281 158 168.667969 157.292969 168.480469 C 157.226562 168.460938 157.140625 168.507812 157.0625 168.523438 C 157.125 168.558594 157.183594 168.613281 157.25 168.628906 C 157.953125 168.800781 158.660156 168.972656 159.363281 169.140625 C 159.679688 169.21875 159.992188 169.289062 160.308594 169.359375 C 160.347656 169.371094 160.394531 169.351562 160.433594 169.347656 C 160.402344 169.324219 160.375 169.289062 160.339844 169.277344 C 160.113281 169.203125 159.882812 169.132812 159.625 169.042969 Z M 156.308594 168.703125 C 156.449219 168.734375 156.589844 168.777344 156.730469 168.800781 C 156.796875 168.8125 156.871094 168.792969 156.9375 168.789062 C 156.878906 168.742188 156.828125 168.667969 156.761719 168.652344 C 156.261719 168.535156 155.761719 168.429688 155.261719 168.324219 C 155.21875 168.316406 155.167969 168.34375 155.121094 168.351562 C 155.15625 168.390625 155.183594 168.457031 155.226562 168.46875 C 155.570312 168.550781 155.914062 168.621094 156.308594 168.703125 Z M 156.308594 168.703125 " fill-opacity="1" fill-rule="nonzero"/><path fill="#e5e1d7" d="M 162.488281 166.289062 C 162.417969 166.402344 162.367188 166.5625 162.265625 166.613281 C 162.0625 166.71875 161.816406 166.847656 161.605469 166.820312 C 161.058594 166.742188 160.523438 166.578125 159.976562 166.46875 C 157.3125 165.929688 154.648438 165.390625 151.976562 164.867188 C 151.378906 164.75 150.761719 164.699219 150.15625 164.613281 C 149.964844 164.585938 149.777344 164.53125 149.574219 164.476562 C 149.648438 164.382812 149.730469 164.292969 149.832031 164.230469 C 150.332031 163.914062 150.417969 163.398438 150.378906 162.890625 C 150.339844 162.394531 150.175781 161.90625 150.089844 161.390625 C 150.160156 161.371094 150.210938 161.367188 150.253906 161.378906 C 151.21875 161.628906 152.183594 161.890625 153.152344 162.132812 C 154.8125 162.542969 156.476562 162.941406 158.140625 163.34375 C 159.203125 163.601562 160.273438 163.847656 161.332031 164.121094 C 162.203125 164.347656 162.628906 165.046875 162.484375 165.933594 C 162.464844 166.046875 162.484375 166.171875 162.488281 166.289062 Z M 151.40625 163.332031 L 151.410156 163.316406 C 151.410156 163.316406 151.410156 163.328125 151.410156 163.363281 C 151.460938 163.402344 151.507812 163.472656 151.566406 163.484375 C 152.019531 163.566406 152.476562 163.640625 152.929688 163.714844 C 152.984375 163.722656 153.042969 163.703125 153.101562 163.695312 C 153.054688 163.648438 153.011719 163.566406 152.960938 163.558594 C 152.445312 163.476562 151.929688 163.402344 151.40625 163.332031 Z M 160.296875 164.34375 C 160 164.265625 159.699219 164.1875 159.398438 164.109375 C 158.96875 163.992188 158.539062 163.871094 158.105469 163.757812 C 157.683594 163.648438 157.261719 163.53125 156.835938 163.445312 C 156.707031 163.421875 156.601562 163.40625 156.472656 163.347656 C 156.152344 163.203125 155.789062 163.15625 155.441406 163.074219 C 155.035156 162.980469 154.625 162.890625 154.214844 162.789062 C 153.871094 162.703125 153.527344 162.601562 153.179688 162.515625 C 153.144531 162.503906 153.09375 162.542969 153.050781 162.5625 C 153.074219 162.59375 153.09375 162.636719 153.125 162.65625 C 153.171875 162.683594 153.230469 162.695312 153.28125 162.714844 C 153.746094 162.890625 154.261719 162.882812 154.722656 163.082031 C 154.898438 163.15625 155.097656 163.164062 155.28125 163.21875 C 155.902344 163.402344 156.523438 163.59375 157.144531 163.777344 C 158.242188 164.097656 159.34375 164.410156 160.441406 164.726562 C 160.589844 164.773438 160.730469 164.847656 160.882812 164.871094 C 160.945312 164.882812 161.027344 164.796875 161.097656 164.753906 C 161.050781 164.695312 161.019531 164.609375 160.960938 164.582031 C 160.757812 164.496094 160.550781 164.429688 160.296875 164.34375 Z M 158.382812 164.597656 C 158.707031 164.695312 159.035156 164.78125 159.351562 164.894531 C 159.625 164.992188 159.917969 164.957031 160.1875 165.148438 C 160.429688 165.324219 160.78125 165.355469 161.089844 165.433594 C 161.167969 165.453125 161.257812 165.402344 161.339844 165.382812 C 161.289062 165.320312 161.253906 165.226562 161.1875 165.195312 C 160.8125 165.03125 160.40625 164.964844 160.023438 164.820312 C 159.378906 164.574219 158.699219 164.410156 158.03125 164.230469 C 156.976562 163.945312 155.917969 163.671875 154.859375 163.402344 C 154.539062 163.320312 154.210938 163.265625 153.882812 163.207031 C 153.816406 163.195312 153.746094 163.226562 153.671875 163.238281 C 153.738281 163.28125 153.796875 163.34375 153.871094 163.363281 C 154.261719 163.46875 154.65625 163.558594 155.042969 163.664062 C 155.722656 163.855469 156.398438 164.0625 157.082031 164.253906 C 157.5 164.371094 157.925781 164.464844 158.382812 164.597656 Z M 157.332031 164.695312 C 157.410156 164.691406 157.488281 164.6875 157.5625 164.683594 C 157.492188 164.644531 157.421875 164.601562 157.347656 164.566406 C 157.296875 164.546875 157.242188 164.535156 157.1875 164.527344 C 156.890625 164.460938 156.589844 164.394531 156.289062 164.339844 C 156.261719 164.332031 156.222656 164.375 156.191406 164.394531 C 156.214844 164.414062 156.238281 164.445312 156.265625 164.453125 C 156.613281 164.523438 156.964844 164.59375 157.332031 164.695312 Z M 151.429688 162.21875 C 151.730469 162.304688 152.035156 162.394531 152.335938 162.484375 C 152.378906 162.496094 152.421875 162.523438 152.460938 162.515625 C 152.507812 162.5 152.542969 162.457031 152.585938 162.425781 C 152.550781 162.410156 152.515625 162.386719 152.480469 162.378906 C 152.199219 162.300781 151.921875 162.222656 151.636719 162.164062 C 151.5625 162.148438 151.476562 162.191406 151.429688 162.21875 Z M 152.199219 162.816406 C 152.101562 162.800781 152.003906 162.78125 151.910156 162.773438 C 151.882812 162.769531 151.855469 162.800781 151.832031 162.8125 C 151.851562 162.828125 151.867188 162.851562 151.890625 162.855469 C 152.210938 162.917969 152.535156 162.976562 152.859375 163.039062 C 152.882812 163.042969 152.914062 163.023438 152.941406 163.015625 C 152.921875 162.996094 152.90625 162.96875 152.882812 162.960938 C 152.671875 162.914062 152.457031 162.871094 152.199219 162.816406 Z M 155.257812 164.21875 C 155.402344 164.25 155.542969 164.289062 155.6875 164.304688 C 155.746094 164.308594 155.808594 164.253906 155.867188 164.226562 C 155.820312 164.210938 155.777344 164.191406 155.726562 164.175781 C 155.589844 164.136719 155.457031 164.085938 155.316406 164.066406 C 155.203125 164.050781 155.085938 164.078125 154.972656 164.085938 C 155.054688 164.125 155.136719 164.160156 155.257812 164.21875 Z M 155.257812 164.21875 " fill-opacity="1" fill-rule="nonzero"/><path fill="#303033" d="M 173.351562 171.34375 C 170.152344 172.109375 166.957031 172.875 163.761719 173.636719 C 162.230469 174.003906 160.691406 174.355469 159.164062 174.738281 C 159 174.777344 158.804688 174.925781 158.738281 175.078125 C 158.566406 175.449219 158.460938 175.851562 158.328125 176.238281 C 158.3125 176.277344 158.289062 176.316406 158.25 176.359375 C 158.113281 175.710938 158.375 175.167969 158.714844 174.640625 C 158.835938 174.449219 159.027344 174.503906 159.199219 174.46875 C 159.625 174.375 160.046875 174.261719 160.472656 174.15625 C 164.429688 173.191406 168.386719 172.226562 172.347656 171.265625 C 172.859375 171.140625 173.378906 171.042969 173.921875 170.9375 C 174.039062 171.078125 173.988281 171.167969 173.84375 171.214844 C 173.722656 171.253906 173.59375 171.285156 173.4375 171.324219 C 173.386719 171.328125 173.375 171.332031 173.359375 171.34375 C 173.359375 171.34375 173.355469 171.34375 173.351562 171.34375 Z M 173.351562 171.34375 " fill-opacity="1" fill-rule="nonzero"/><path fill="#303033" d="M 162.238281 169.820312 C 162.003906 169.039062 161.355469 168.925781 160.683594 168.804688 C 159.105469 168.523438 157.527344 168.21875 155.953125 167.898438 C 154.390625 167.582031 152.832031 167.246094 151.273438 166.902344 C 150.675781 166.773438 150.082031 166.609375 149.46875 166.464844 C 149.246094 166.320312 148.910156 166.308594 148.9375 165.925781 C 148.972656 165.902344 149.007812 165.882812 149.027344 165.894531 C 149.722656 166.398438 150.566406 166.476562 151.359375 166.65625 C 153.898438 167.234375 156.453125 167.757812 159.003906 168.289062 C 159.746094 168.445312 160.5 168.585938 161.253906 168.667969 C 161.867188 168.738281 162.121094 169.097656 162.253906 169.621094 C 162.269531 169.679688 162.257812 169.75 162.238281 169.820312 Z M 162.238281 169.820312 " fill-opacity="1" fill-rule="nonzero"/><path fill="#303033" d="M 162.507812 166.285156 C 162.484375 166.171875 162.464844 166.046875 162.484375 165.929688 C 162.628906 165.042969 162.207031 164.347656 161.332031 164.121094 C 160.273438 163.84375 159.203125 163.597656 158.140625 163.339844 C 156.476562 162.9375 154.8125 162.542969 153.152344 162.132812 C 152.183594 161.890625 151.21875 161.628906 150.253906 161.378906 C 150.210938 161.367188 150.160156 161.371094 150.089844 161.367188 C 149.964844 161.238281 149.679688 161.4375 149.667969 161.125 C 149.894531 161.125 150.132812 161.105469 150.347656 161.167969 C 152.957031 161.929688 155.59375 162.570312 158.25 163.15625 C 159.324219 163.394531 160.394531 163.664062 161.464844 163.933594 C 162.410156 164.171875 163.015625 165.320312 162.59375 166.199219 C 162.578125 166.230469 162.550781 166.253906 162.507812 166.285156 Z M 162.507812 166.285156 " fill-opacity="1" fill-rule="nonzero"/><path fill="#303033" d="M 149.601562 166.867188 C 149.746094 166.894531 149.871094 166.9375 150 166.964844 C 151.234375 167.210938 152.46875 167.445312 153.703125 167.699219 C 153.988281 167.757812 154.265625 167.949219 154.539062 167.941406 C 155.132812 167.917969 155.652344 168.1875 156.21875 168.253906 C 156.386719 168.269531 156.554688 168.320312 156.722656 168.363281 C 156.757812 168.375 156.777344 168.433594 156.804688 168.472656 C 156.769531 168.476562 156.730469 168.488281 156.695312 168.480469 C 156.265625 168.398438 155.832031 168.3125 155.402344 168.222656 C 154.847656 168.105469 154.292969 167.96875 153.738281 167.859375 C 152.863281 167.6875 151.984375 167.523438 151.105469 167.359375 C 150.664062 167.277344 150.21875 167.203125 149.753906 167.128906 C 149.570312 167.109375 149.539062 167.015625 149.601562 166.867188 Z M 149.601562 166.867188 " fill-opacity="1" fill-rule="nonzero"/><path fill="#303033" d="M 169.9375 160.773438 C 169.894531 160.863281 169.855469 160.984375 169.78125 161.015625 C 168.367188 161.546875 166.953125 162.074219 165.53125 162.59375 C 165.425781 162.632812 165.304688 162.621094 165.1875 162.632812 C 165.273438 162.5625 165.351562 162.46875 165.449219 162.429688 C 166.523438 161.996094 167.601562 161.566406 168.679688 161.148438 C 169.046875 161 169.429688 160.882812 169.828125 160.746094 C 169.875 160.75 169.902344 160.757812 169.9375 160.773438 Z M 169.9375 160.773438 " fill-opacity="1" fill-rule="nonzero"/><path fill="#e5e1d7" d="M 173.371094 171.351562 C 173.375 171.332031 173.386719 171.328125 173.417969 171.332031 C 173.414062 171.34375 173.398438 171.351562 173.371094 171.351562 Z M 173.371094 171.351562 " fill-opacity="1" fill-rule="nonzero"/><path fill="#303033" d="M 149.867188 169.691406 C 149.9375 169.710938 149.984375 169.734375 150.050781 169.757812 C 151.136719 170.558594 152.246094 171.292969 153.445312 171.882812 C 153.617188 171.96875 153.78125 172.074219 153.945312 172.183594 C 153.988281 172.214844 154.007812 172.289062 154.035156 172.34375 C 153.96875 172.339844 153.890625 172.363281 153.839844 172.332031 C 153.378906 172.089844 152.910156 171.855469 152.464844 171.582031 C 151.617188 171.058594 150.785156 170.515625 149.949219 169.972656 C 149.859375 169.917969 149.671875 169.859375 149.867188 169.691406 Z M 149.867188 169.691406 " fill-opacity="1" fill-rule="nonzero"/><path fill="#303033" d="M 157.679688 174.027344 C 157.144531 173.804688 156.628906 173.597656 156.113281 173.382812 C 156.039062 173.347656 155.988281 173.265625 155.925781 173.207031 C 156.007812 173.207031 156.101562 173.1875 156.175781 173.214844 C 156.789062 173.453125 157.40625 173.695312 158.015625 173.945312 C 158.105469 173.984375 158.167969 174.078125 158.242188 174.148438 C 158.136719 174.148438 158.027344 174.160156 157.925781 174.144531 C 157.847656 174.128906 157.777344 174.074219 157.679688 174.027344 Z M 157.679688 174.027344 " fill-opacity="1" fill-rule="nonzero"/><path fill="#303033" d="M 169.394531 164.5625 C 168.035156 165.300781 166.699219 166.035156 165.359375 166.757812 C 165.246094 166.816406 165.09375 166.8125 164.960938 166.835938 C 165.058594 166.753906 165.144531 166.652344 165.253906 166.589844 C 166.742188 165.773438 168.234375 164.960938 169.730469 164.152344 C 169.847656 164.089844 169.996094 164.078125 170.125 164.042969 C 170.023438 164.136719 169.929688 164.238281 169.820312 164.316406 C 169.691406 164.40625 169.550781 164.476562 169.394531 164.5625 Z M 169.394531 164.5625 " fill-opacity="1" fill-rule="nonzero"/><path fill="#303033" d="M 164.765625 174.847656 C 164.679688 174.824219 164.617188 174.808594 164.554688 174.785156 C 164.605469 174.757812 164.65625 174.714844 164.710938 174.699219 C 165.539062 174.464844 166.363281 174.230469 167.195312 174.003906 C 167.847656 173.828125 168.503906 173.648438 169.164062 173.484375 C 169.664062 173.359375 170.164062 173.253906 170.667969 173.144531 C 170.714844 173.136719 170.769531 173.1875 170.824219 173.207031 C 170.78125 173.230469 170.742188 173.269531 170.695312 173.277344 C 170.371094 173.347656 170.042969 173.402344 169.722656 173.484375 C 169.40625 173.566406 169.101562 173.691406 168.789062 173.773438 C 168.226562 173.921875 167.652344 174.035156 167.09375 174.1875 C 166.320312 174.394531 165.554688 174.625 164.765625 174.847656 Z M 164.765625 174.847656 " fill-opacity="1" fill-rule="nonzero"/><path fill="#303033" d="M 170.089844 172.859375 C 169.382812 173.046875 168.695312 173.226562 168.007812 173.398438 C 167.726562 173.464844 167.433594 173.503906 167.152344 173.566406 C 167.046875 173.589844 166.953125 173.640625 166.851562 173.675781 C 166.828125 173.683594 166.796875 173.667969 166.769531 173.664062 C 166.789062 173.640625 166.808594 173.609375 166.832031 173.597656 C 167.023438 173.507812 167.203125 173.398438 167.402344 173.34375 C 168.558594 173.027344 169.71875 172.726562 170.878906 172.421875 C 171.210938 172.335938 171.542969 172.265625 171.878906 172.199219 C 171.929688 172.1875 171.992188 172.226562 172.046875 172.242188 C 172.003906 172.289062 171.96875 172.363281 171.917969 172.375 C 171.316406 172.539062 170.710938 172.695312 170.089844 172.859375 Z M 170.089844 172.859375 " fill-opacity="1" fill-rule="nonzero"/><path fill="#303033" d="M 166.152344 174.804688 C 166.546875 174.707031 166.917969 174.613281 167.292969 174.519531 C 167.3125 174.515625 167.339844 174.539062 167.363281 174.546875 C 167.339844 174.566406 167.320312 174.59375 167.296875 174.597656 C 166.871094 174.710938 166.445312 174.824219 166.019531 174.929688 C 165.957031 174.945312 165.882812 174.925781 165.816406 174.917969 C 165.878906 174.890625 165.9375 174.859375 166 174.835938 C 166.042969 174.820312 166.089844 174.820312 166.152344 174.804688 Z M 166.152344 174.804688 " fill-opacity="1" fill-rule="nonzero"/><path fill="#303033" d="M 159.640625 169.054688 C 159.882812 169.132812 160.113281 169.203125 160.339844 169.277344 C 160.375 169.289062 160.402344 169.324219 160.433594 169.347656 C 160.394531 169.351562 160.347656 169.371094 160.308594 169.359375 C 159.992188 169.289062 159.679688 169.21875 159.363281 169.140625 C 158.660156 168.972656 157.953125 168.800781 157.25 168.628906 C 157.183594 168.613281 157.125 168.558594 157.0625 168.523438 C 157.140625 168.507812 157.226562 168.460938 157.292969 168.480469 C 158 168.667969 158.707031 168.863281 159.410156 169.050781 C 159.476562 169.070312 159.550781 169.046875 159.640625 169.054688 Z M 159.640625 169.054688 " fill-opacity="1" fill-rule="nonzero"/><path fill="#303033" d="M 156.285156 168.699219 C 155.914062 168.621094 155.570312 168.546875 155.226562 168.464844 C 155.183594 168.457031 155.15625 168.390625 155.121094 168.351562 C 155.167969 168.34375 155.21875 168.316406 155.261719 168.324219 C 155.761719 168.429688 156.261719 168.535156 156.761719 168.652344 C 156.828125 168.667969 156.878906 168.742188 156.9375 168.785156 C 156.871094 168.792969 156.796875 168.8125 156.730469 168.800781 C 156.589844 168.777344 156.449219 168.734375 156.285156 168.699219 Z M 156.285156 168.699219 " fill-opacity="1" fill-rule="nonzero"/><path fill="#303033" d="M 160.320312 164.351562 C 160.550781 164.429688 160.757812 164.496094 160.960938 164.582031 C 161.019531 164.605469 161.054688 164.695312 161.097656 164.753906 C 161.027344 164.796875 160.945312 164.882812 160.882812 164.871094 C 160.730469 164.847656 160.589844 164.769531 160.441406 164.726562 C 159.34375 164.410156 158.246094 164.097656 157.144531 163.777344 C 156.523438 163.59375 155.90625 163.398438 155.28125 163.21875 C 155.097656 163.164062 154.898438 163.15625 154.722656 163.078125 C 154.261719 162.882812 153.75 162.890625 153.28125 162.710938 C 153.230469 162.691406 153.171875 162.683594 153.125 162.65625 C 153.09375 162.636719 153.074219 162.59375 153.050781 162.558594 C 153.09375 162.542969 153.144531 162.503906 153.179688 162.515625 C 153.527344 162.601562 153.871094 162.703125 154.214844 162.789062 C 154.625 162.890625 155.035156 162.976562 155.441406 163.074219 C 155.789062 163.15625 156.152344 163.203125 156.472656 163.347656 C 156.601562 163.402344 156.707031 163.417969 156.835938 163.445312 C 157.261719 163.53125 157.683594 163.648438 158.105469 163.757812 C 158.539062 163.871094 158.96875 163.992188 159.398438 164.109375 C 159.699219 164.1875 160 164.265625 160.320312 164.351562 Z M 160.320312 164.351562 " fill-opacity="1" fill-rule="nonzero"/><path fill="#303033" d="M 158.367188 164.582031 C 157.925781 164.464844 157.5 164.371094 157.082031 164.253906 C 156.402344 164.0625 155.726562 163.855469 155.042969 163.664062 C 154.65625 163.558594 154.261719 163.46875 153.871094 163.363281 C 153.800781 163.34375 153.738281 163.28125 153.675781 163.238281 C 153.746094 163.226562 153.820312 163.195312 153.882812 163.207031 C 154.210938 163.265625 154.539062 163.320312 154.859375 163.402344 C 155.917969 163.671875 156.976562 163.945312 158.03125 164.230469 C 158.703125 164.410156 159.378906 164.574219 160.023438 164.820312 C 160.40625 164.964844 160.816406 165.03125 161.1875 165.195312 C 161.253906 165.226562 161.292969 165.320312 161.34375 165.382812 C 161.257812 165.402344 161.167969 165.453125 161.09375 165.433594 C 160.785156 165.355469 160.433594 165.324219 160.1875 165.148438 C 159.917969 164.957031 159.625 164.992188 159.351562 164.894531 C 159.035156 164.777344 158.707031 164.695312 158.367188 164.582031 Z M 158.367188 164.582031 " fill-opacity="1" fill-rule="nonzero"/><path fill="#303033" d="M 151.414062 163.328125 C 151.929688 163.402344 152.445312 163.476562 152.960938 163.558594 C 153.011719 163.566406 153.054688 163.648438 153.101562 163.695312 C 153.042969 163.703125 152.984375 163.722656 152.929688 163.714844 C 152.476562 163.640625 152.019531 163.566406 151.566406 163.484375 C 151.507812 163.472656 151.460938 163.402344 151.410156 163.34375 C 151.414062 163.328125 151.414062 163.328125 151.414062 163.328125 Z M 151.414062 163.328125 " fill-opacity="1" fill-rule="nonzero"/><path fill="#303033" d="M 157.324219 164.675781 C 156.964844 164.59375 156.613281 164.523438 156.265625 164.453125 C 156.238281 164.449219 156.214844 164.414062 156.191406 164.394531 C 156.222656 164.375 156.261719 164.332031 156.289062 164.339844 C 156.589844 164.394531 156.890625 164.460938 157.1875 164.527344 C 157.242188 164.539062 157.296875 164.546875 157.347656 164.566406 C 157.421875 164.601562 157.492188 164.644531 157.5625 164.6875 C 157.484375 164.6875 157.410156 164.691406 157.324219 164.675781 Z M 157.324219 164.675781 " fill-opacity="1" fill-rule="nonzero"/><path fill="#303033" d="M 151.410156 162.214844 C 151.476562 162.191406 151.5625 162.148438 151.636719 162.164062 C 151.921875 162.222656 152.199219 162.300781 152.480469 162.375 C 152.515625 162.386719 152.550781 162.410156 152.585938 162.425781 C 152.546875 162.457031 152.507812 162.5 152.460938 162.511719 C 152.425781 162.523438 152.378906 162.496094 152.335938 162.484375 C 152.035156 162.394531 151.730469 162.304688 151.410156 162.214844 Z M 151.410156 162.214844 " fill-opacity="1" fill-rule="nonzero"/><path fill="#303033" d="M 152.222656 162.820312 C 152.457031 162.871094 152.667969 162.914062 152.882812 162.964844 C 152.902344 162.96875 152.921875 162.996094 152.941406 163.015625 C 152.914062 163.023438 152.882812 163.042969 152.855469 163.039062 C 152.535156 162.980469 152.210938 162.917969 151.886719 162.855469 C 151.867188 162.851562 151.847656 162.828125 151.828125 162.816406 C 151.855469 162.800781 151.882812 162.773438 151.90625 162.773438 C 152.003906 162.78125 152.101562 162.800781 152.222656 162.820312 Z M 152.222656 162.820312 " fill-opacity="1" fill-rule="nonzero"/><path fill="#303033" d="M 155.238281 164.210938 C 155.136719 164.164062 155.054688 164.125 154.972656 164.085938 C 155.085938 164.078125 155.203125 164.050781 155.316406 164.066406 C 155.457031 164.085938 155.589844 164.136719 155.726562 164.175781 C 155.777344 164.191406 155.820312 164.210938 155.867188 164.226562 C 155.808594 164.253906 155.746094 164.308594 155.6875 164.304688 C 155.542969 164.289062 155.402344 164.25 155.238281 164.210938 Z M 155.238281 164.210938 " fill-opacity="1" fill-rule="nonzero"/><path fill="#303033" d="M 151.410156 163.328125 C 151.410156 163.328125 151.410156 163.316406 151.410156 163.316406 C 151.410156 163.316406 151.40625 163.332031 151.410156 163.328125 C 151.414062 163.328125 151.414062 163.328125 151.410156 163.328125 Z M 151.410156 163.328125 " fill-opacity="1" fill-rule="nonzero"/></svg>